<svg xmlns="http://www.w3.org/2000/svg" viewBox="0 0 176.96 23.43"><path d="M175.256 8.913V5.2h-.75c.162.813.412 2.05.75 3.713m-3.025 6.462c-.025-.825-.1-2.05-.225-3.675a21.046 21.046 0 0 0-.688-3.387v7.05h.913zm2.7 4.85c-.55.125-.838.188-.875.188-.55 0-1.1-.213-1.663-.65-.6-.45-.9-.938-.9-1.475 0-.488.288-.963.863-1.438-.85.388-1.275 1.063-1.275 2.025 0 .613.213 1.125.625 1.525.425.413.938.613 1.55.613.688.012 1.25-.25 1.675-.788m.925-1.337c0 .725-.25 1.35-.762 1.85a2.51 2.51 0 0 1-1.85.762c-.738 0-1.363-.25-1.888-.75-.512-.5-.775-1.125-.775-1.862s.263-1.375.775-1.9a2.548 2.548 0 0 1 1.888-.788c.725 0 1.35.263 1.85.8.512.525.762 1.163.762 1.888m.35-13.688h-.475v10.175h.475v.475h-.475v.888h-.475v-.888h-4.9v-.475h.475V5.2h-.475v-.475h.475v-.687h.475v.687h3.938V3.85h.475v.875h.475V5.2zm-9.212 9.288v-.663l-.225.038c-.238 0-.45-.063-.625-.188l-.275.025c.162.225.225.5.2.8h.925zm-.113-9.325h-1.912c.187.062.5.275.912.612.213-.4.55-.6 1-.612m.588 12.812v-.337h-3.1c.137.075.275.162.387.25.188.025.425.087.688.175.225-.038.425-.063.6-.063h.337c.188 0 .388.038.575.1a1.43 1.43 0 0 1 .512-.125m-.875 2.763c-.187-.013-.437-.1-.725-.25-.337-.175-.587-.275-.725-.3-.2.125-.512.312-.937.55h2.388zm-4.575 0a1.027 1.027 0 0 1-.287-.425l-.113.037.1-.075-.025-.037a5.797 5.797 0 0 1-1.2.137c-.475 0-.825-.2-1.05-.587a4.438 4.438 0 0 1-.612-.513v1.475h3.187zm-2.212-15.575h-.975v1.075c.212-.475.537-.838.975-1.075m9.112 9.8h-1.45v.737h-.475v-.725h-4.15v2.175h4.625v-.437h.475v.437h.575v.475h-.575v3.113h.9v.475h-.9v.437h-.475v-.437h-8.637v1.45h-.475v-1.45h-.912v-.475h.912V5.163h-.688v-.475h.688v-1.45h.475v1.45h8.637V4.25h.475v.438h.675v.475h-.675v3.612h-.25V8.8h-4.862v2.25h4.15v-.725h.475v.725h.625v.475h-.625v2.963h1.45v.475zm-13.287-8.6v-1.2h-.963c.013.137 0 .35-.037.612l-.025-.15V5.9l.025.575a3.369 3.369 0 0 1 1-.112m-3.913 7.675V15.7c0 .763-.112 1.325-.325 1.675.175.025.338.038.463.038h.15c-.088-.4-.138-.613-.138-.65 0-.15.038-.388.1-.7.063-.313.1-.55.1-.7-.012-.313-.125-.75-.35-1.325m-2.637 3.25a3.177 3.177 0 0 1-.475-.688l-.475.463c.1.125.287.3.55.537a.793.793 0 0 1 .4-.312m-2.7 1.6c.912 1.475 2.162 2.25 3.75 2.312l-.55-.112v.012c-.475-.075-.8-.337-.975-.8-.713-.237-1.45-.712-2.225-1.412m10.15-13.725h-.425V14.4c0 2.113-.438 3.8-1.3 5.063-1.013 1.475-2.513 2.212-4.525 2.212-.863 0-1.7-.237-2.488-.725a5.528 5.528 0 0 1-1.875-1.887l-.3.262-.337-.312.412-.363a4.436 4.436 0 0 1-.437-1.612l.475-.038c.025.438.137.863.325 1.288l3.5-3.188.325.338-.925.825c.387.775.825 1.162 1.325 1.162.637 0 .962-.575.962-1.737V5.175h-1.237V4.7h1.237V3.25h.475V4.7h3.925v-.675h.475V4.7h.425v.463zM145.256 17.05l-.213-.062c-.25.175-.512.437-.762.787h.012c.15.063.35.188.588.363.163-.338.287-.7.375-1.088m-3.213-.3c-.525.013-.95 0-1.287-.025a1.378 1.378 0 0 1-.325.438c.237.25.35.562.325.937.388-.275.625-.475.75-.587.075-.088.25-.35.538-.763m1.312-7.975a1.112 1.112 0 0 1-.613-.312c-.575-.2-1.225-.475-1.975-.8a.999.999 0 0 0-.337.225c1.025.025 1.962.375 2.825 1.05l.1-.163zm1.425-2.575c-1.263-.812-2.75-1.275-4.475-1.375.25.125 1.012.35 2.25.675.962.25 1.662.575 2.062.975l.163-.275zm-4.513 13.075l-.012-.287-.138.075h-.1l-.174.187.425.025zm1.513-7.687c-.463-.175-1.125-.488-2.013-.938.2.375.425.688.65.95l1.363-.012zm-3.463-5.013c-.412-.162-.787-.312-1.15-.437l.463 1.262a5.59 5.59 0 0 1 .687-.825m.775 7.475c-1.175-.15-1.975-.712-2.387-1.687-.113.125-.3.287-.575.5.5.4 1.425.85 2.775 1.375l.187-.188zm-1.537 3.238c-.563-.213-1.188-.55-1.875-1.013l-.113.225a30.5 30.5 0 0 0 1.738.875l.25-.087zm-1.975-6.85l-.3-.075c-.075.05-.263.075-.575.075.062.387.1.562.112.537l.075.188.688-.725zm-.1 8.725l-1.088-.5-.337.675c.337.212.662.412.975.575.062-.325.212-.575.45-.75m10.675-12.45l-.325.35-.675-.575-2.275 4.125-.425-.225.575-1.013c-.838-.662-1.738-1-2.675-1-.263 0-.488.1-.675.3a.984.984 0 0 0-.275.688c0 .437.55.9 1.662 1.4 1.55.675 2.588 1.212 3.113 1.625 1.112.875 1.662 2.012 1.662 3.387 0 1.725-.537 3.113-1.625 4.175-1.087 1.063-2.487 1.6-4.2 1.6-2.3 0-4.362-.6-6.2-1.8l-.187.325-.425-.225 2.062-3.837-.837-.575.262-.4.8.55.188-.388.437.225-.225.425c1.35.875 2.375 1.325 3.063 1.325.387 0 .712-.087.975-.262a.97.97 0 0 0 .475-.863c0-.437-.538-.875-1.625-1.312-1.475-.6-2.488-1.113-3.025-1.55-1.088-.888-1.625-2.1-1.625-3.613 0-1.475.55-2.725 1.637-3.725 1.1-1.012 2.388-1.512 3.888-1.512 2.05 0 3.825.487 5.337 1.45l.5-.9.4.225-.512.962.775.638zm-13.438 6.212c0-1.675-.425-3.15-1.275-4.45.263.525.425.988.475 1.375.013.088.038.563.075 1.413.025.45.263 1.225.713 2.35 0-.225.012-.463.012-.688m-4.4 0c0-1.15-.412-2.15-1.237-3.012-.825-.863-1.813-1.288-2.95-1.288-1.2 0-2.2.413-3.025 1.225-.813.813-1.225 1.825-1.225 3.025 0 1.3.387 2.338 1.15 3.125.762.788 1.8 1.175 3.1 1.175 1.237 0 2.25-.4 3.025-1.187.775-.8 1.162-1.813 1.162-3.063M120.406 9.9c-.338.213-.65.488-.913.825.025.125.088.325.175.588.15-.513.4-.988.738-1.413m1.062 10.825c-.325-.25-.787-.725-1.4-1.412-1.5-.513-2.412-1.45-2.712-2.813-.85-1.05-1.488-2.075-1.888-3.1.088 1.825.675 3.388 1.738 4.675 1.075 1.3 2.5 2.175 4.262 2.65m11.725-7.8c0 2.6-.85 4.688-2.55 6.263-1.7 1.575-3.862 2.362-6.475 2.362-2.625 0-4.8-.775-6.525-2.312-1.787-1.6-2.675-3.713-2.675-6.313 0-2.55.9-4.637 2.713-6.25 1.737-1.575 3.887-2.35 6.475-2.35 2.537 0 4.662.8 6.387 2.388 1.775 1.625 2.65 3.7 2.65 6.212m-19.212 1.188c-.05.175-.238.425-.563.737-.325.313-.525.813-.6 1.525-.087.775-.237 1.313-.437 1.588.875-1.05 1.412-2.338 1.6-3.85m-3.563-5.05c-.75-.188-1.887-.388-3.425-.588 1.213.288 2.063.888 2.563 1.813.15-.65.437-1.063.862-1.225m.675-2.238c-1.225-.862-2.7-1.4-4.412-1.587.2.262.312.55.325.837 1.712 0 3.075.25 4.087.75m-4.225 10.613a7.13 7.13 0 0 1-1.6.175v.512h.175c.313-.15.788-.387 1.425-.687m2.788-4.55c0-1.588-.463-2.713-1.375-3.35-.75-.538-1.963-.8-3.613-.788v8.388h.438c3.037.012 4.55-1.413 4.55-4.25m-5.463-3.963v-.462l-.337-.025-.1.15c.162.087.312.2.437.337m-2.062 11.813a1.11 1.11 0 0 1-.325-.475c-.7-.35-1.213-1-1.525-1.95v2.425h1.85zm-.35-13.513c-.138.05-.288.075-.438.075-.25 0-.462-.075-.612-.225-.15-.15-.3-.3-.463-.45v3.513c.3-.85.8-1.825 1.513-2.913m12.75 5.663c0 2.637-.875 4.712-2.625 6.212-1.638 1.413-3.8 2.125-6.475 2.125h-5.163V23h-.475v-1.775h-1.887v-.475h1.887V5.175h-.837V4.7h.837V2.925h.475V4.7h4.988c2.65 0 4.825.7 6.512 2.088 1.85 1.475 2.763 3.512 2.763 6.1m-17.475 6.925v-2.488c-.2.375-.525.788-.975 1.263l.062-.013-.1.038c.588.375.925.775 1.013 1.2m-1.55-14.688h-.013.013zm1.55.913v-.913h-1.6l.175.038-.113-.038c.4 0 .713.213.938.65.225.025.425.113.6.263m-2.088 12.837c-.462-.075-.787-.35-.975-.825-.037.05-.037.1.025.138-.012.275-.125.55-.35.8.313.15.563.225.788.225l.262-.013.25-.325zm-.2-13.75h-1.562v1.488c.337.15.55.4.65.75.012-.588.062-1.025.137-1.3.125-.513.388-.825.775-.938m-1.725 10l-2.375-3.1c.338.663.663 1.325 1 1.988.413.75.813 1.362 1.2 1.837l.388.063a22.99 22.99 0 0 1-.213-.788m-4.6-.237l1.513 2.025c.05-.225.15-.438.287-.613-.175-.2-.775-.662-1.8-1.412m-4.275 4.062c.25.325.538.575.838.725v-4.7c-.038.988-.325 2.313-.838 3.975M82.831 7.975a5.241 5.241 0 0 1-.538-.762c-.05.412-.075.837-.075 1.3 0 .5.075 1.475.213 2.937 0-.687.137-1.85.4-3.475M98.468 21.2h-.937v1.188h-.475V21.2h-3.925l.5.65-.388.288-.712-.938h-.913v-.475h.55l-6.687-8.962v8.962h.462v.475h-.462v1.663h-.475V21.2h-3.788v.475h-.475V21.2h-.437v-.475h.437v-15.6h-.75V4.65h.75V3.6h.475v1.05h3.8L83.531 2.7l.362-.287 1.725 2.237h.838v.475h-.475l6.725 8.788V5.125h-.388V4.65h.388V2.3h.475v2.35h3.862V4h.475v.65h.575v.475h-.575v15.6h.938v.475zm-20.6-6.712v-.663l-.225.038c-.237 0-.45-.063-.625-.188l-.275.025c.163.225.225.5.2.8h.925zm-.125-9.325h-1.912c.187.062.5.275.912.612.225-.4.563-.6 1-.612m.6 12.812v-.337h-3.1c.138.075.275.162.388.25.187.025.425.087.687.175.225-.038.425-.063.6-.063h.338c.187 0 .387.038.575.1a1.43 1.43 0 0 1 .512-.125m-.875 2.763c-.187-.013-.437-.1-.725-.25-.337-.175-.587-.275-.725-.3-.2.125-.512.312-.937.55h2.387zm-4.575 0a1.027 1.027 0 0 1-.287-.425l-.113.037.1-.075-.025-.037a5.797 5.797 0 0 1-1.2.137c-.475 0-.825-.2-1.05-.587a4.438 4.438 0 0 1-.612-.513v1.475h3.187zM70.681 5.163h-.975v1.075c.212-.475.537-.838.975-1.075m9.112 9.8h-1.45v.737h-.475v-.725h-4.15v2.175h4.625v-.437h.475v.437h.575v.475h-.575v3.113h.9v.475h-.9v.437h-.475v-.437h-8.637v1.45h-.475v-1.45h-.913v-.475h.913V5.163h-.688v-.475h.688v-1.45h.475v1.45h8.637V4.25h.475v.438h.675v.475h-.675v3.612h-.25V8.8h-4.862v2.25h4.15v-.725h.475v.725h.625v.475h-.625v2.963h1.45c.012 0 .012.475.012.475zM65.481 5.45v-.325h-.1l-.225.788.325-.463zm1.15 3.588l-.65.575a231.95 231.95 0 0 1-1.588 4.7l2.238-5.275zm-3.388-1.525c-.625 1.45-1.525 3.637-2.712 6.537.15-.2.362-.512.65-.937.187-.338.462-.925.8-1.775.325-.775.6-1.363.862-1.763.075-.6.2-1.287.4-2.062M58.818 20c-.25-.25-.375-.6-.35-1.05l-.15-.362c-.287.15-.6.175-.912.075l.85 2.062h.287a1.29 1.29 0 0 1 .275-.725m-1.1-10.387l-1.762-4.488h-.288c.313.763.638 1.525.963 2.275.362.863.725 1.6 1.087 2.213m-4.862-3.438a9.607 9.607 0 0 1-.363-1.05h-.687l.975 2.375c-.013-.312.012-.75.075-1.325m16.637-1.05h-.65l-6.7 15.6h1.3v.475h-1.512l-.175.4-.45-.2.112-.2h-2.937l.2.538-.438.187-.287-.725h-.75v-.475h.537l-6.45-15.6h-1.162V4.65h.962l-.112-.287.437-.188.188.475h4.2l-.375-.9.45-.162.4 1.062h1.212v.475h-1.012l3.362 8.6c.05.125.1.288.15.475.05-.187.1-.35.15-.475l3.588-8.6h-2.138V4.65h6.913l.25-.587.437.187-.175.4h.463l.012.475zm-19.025 9.363v-.663l-.225.038c-.237 0-.45-.063-.625-.188l-.275.025c.163.225.225.5.2.8h.925zm-.112-9.325h-1.913c.188.062.5.275.913.612.225-.4.55-.6 1-.612m.587 12.812v-.337h-3.1c.138.075.275.162.388.25.187.025.425.087.687.175.225-.038.425-.063.6-.063h.338c.187 0 .387.038.575.1a1.43 1.43 0 0 1 .512-.125m-.875 2.763c-.187-.013-.437-.1-.725-.25-.337-.175-.587-.275-.725-.3-.2.125-.512.312-.937.55h2.387zm-.687-20.2a1.323 1.323 0 0 0-.388-.063c-.387 0-.725.125-1.012.363-.3.237-.438.55-.438.912 0 .688.388 1.1 1.15 1.238-.575-.163-.862-.55-.862-1.15 0-.388.137-.688.412-.9.275-.225.613-.313 1-.263l.138-.137zm1.55 1.225c0 .5-.2.912-.588 1.25a1.999 1.999 0 0 1-1.35.512c-.525 0-.975-.162-1.362-.5a1.589 1.589 0 0 1-.575-1.262c0-.513.2-.925.587-1.263.388-.337.838-.5 1.35-.5.513 0 .963.175 1.35.513.388.325.588.75.588 1.25m-5.125-.075c.012-.338-.138-.625-.45-.863-.313-.225-.65-.35-1-.35-.188 0-.375.038-.538.1.1.05.2.125.288.213a1.09 1.09 0 0 1 .5-.113c.325 0 .6.125.837.363.238.237.363.525.338.837l.025-.187zm.475.075c0 .5-.2.912-.588 1.25a1.999 1.999 0 0 1-1.35.512c-.525 0-.975-.162-1.362-.5a1.589 1.589 0 0 1-.575-1.262c0-.513.187-.925.575-1.263.387-.337.837-.5 1.362-.5.513 0 .963.175 1.35.513.4.325.588.75.588 1.25m-.788 18.975a1.027 1.027 0 0 1-.287-.425l-.113.037.1-.075-.025-.037a5.797 5.797 0 0 1-1.2.137c-.475 0-.825-.2-1.05-.587a4.438 4.438 0 0 1-.612-.513v1.475h3.187zM43.281 5.163h-.975v1.075c.212-.475.537-.838.975-1.075m9.125 9.8h-1.45v.737h-.475v-.725h-4.15v2.175h4.625v-.437h.475v.437h.575v.475h-.575v3.113h.9v.475h-.9v.437h-.475v-.437h-8.638v1.45h-.475v-1.45h-.912v-.475h.912V5.163h-.687v-.475h.687v-1.45h.475v1.45h8.638V4.25h.475v.438h.675v.475h-.675v3.612h-.25V8.8h-4.863v2.25h4.15v-.725h.475v.725h.625v.475h-.625v2.963h1.45l.013.475zm-11.95-6.688v-3.15h-.713l.188.213-.038.25c.275.262.4.562.4.9 0 .15-.025.312-.075.462.025.1.038.2.038.3 0 .338-.15.638-.438.913h-.912l.025.112h1.525zm-3.463 9.388v-1.288l-.175.113.175 1.175zm0 3.062v-.8c-.1.313-.375.588-.8.8h.8zm-3.362-1.287l.075-1a9.21 9.21 0 0 1-.35-2.25l-.263-.15v4.687h1.725a1.509 1.509 0 0 1-.787-.35c-.263-.212-.4-.462-.4-.75v-.187zm3.687-14.313h-6.1c.125.038.25.075.363.138h.675c.337-.013.8 0 1.412.05.663.062 1.138.1 1.438.1l.112.137c.45-.087 1.113-.187 2.013-.3l.087-.125zm-5.35 3.15l-.012-.037c-.9-.05-1.675-.113-2.3-.188v.225h2.312zm-1.662-3.15h-.65v.388a1.37 1.37 0 0 1 .65-.388M41.981 8.75h-1.05v.388h-.475V8.75h-2.988v11.975h1.4v.475h-1.4v.825h-.475V21.2h-3.9v1.3h-.475v-1.3h-1.412v-.475h1.412V8.75h-2.962v2.05h-.475V8.75h-.8v-.475h.8v-3.15h-.588V4.65h.588v-.712h.475v.712h10.8v-.5h.475v.5h.387v.475h-.387v3.15h1.05v.475zm-14.238 5.738v-.663l-.225.038c-.237 0-.45-.063-.625-.188l-.275.025c.163.225.225.5.2.8h.925zm-.125-9.325h-1.912c.187.062.5.275.912.612.225-.4.563-.6 1-.612m.6 12.812v-.337h-3.1c.138.075.275.162.388.25.187.025.425.087.687.175.225-.038.425-.063.6-.063h.338c.187 0 .387.038.575.1a1.43 1.43 0 0 1 .512-.125m-.875 2.763c-.187-.013-.437-.1-.725-.25-.337-.175-.587-.275-.725-.3-.2.125-.512.312-.937.55h2.387zm-4.575 0a1.027 1.027 0 0 1-.287-.425l-.113.037.1-.075-.025-.037a5.797 5.797 0 0 1-1.2.137c-.475 0-.825-.2-1.05-.587a4.438 4.438 0 0 1-.612-.513v1.475h3.187zM20.556 5.163h-.975v1.075c.212-.475.537-.838.975-1.075m9.112 9.8h-1.45v.737h-.475v-.725h-4.15v2.175h4.625v-.437h.475v.437h.575v.475h-.575v3.113h.9v.475h-.9v.437h-.475v-.437h-8.637v1.45h-.475v-1.45h-.913v-.475h.913V5.163h-.688v-.475h.688v-1.45h.475v1.45h8.637V4.25h.475v.438h.675v.475h-.675v3.612h-.25V8.8h-4.862v2.25h4.15v-.725h.475v.725h.625v.475h-.625v2.963h1.45v.475h.012zM15.356 5.45v-.325h-.1l-.225.788.325-.463zm1.15 3.588l-.65.575a231.95 231.95 0 0 1-1.588 4.7l2.238-5.275zm-3.388-1.525c-.625 1.45-1.525 3.637-2.712 6.537.15-.2.362-.512.65-.937.187-.338.462-.925.8-1.775.325-.775.6-1.363.862-1.763.075-.6.2-1.287.4-2.062M8.693 20c-.25-.25-.375-.6-.35-1.05l-.15-.362c-.287.15-.6.175-.912.075l.85 2.062h.287A1.29 1.29 0 0 1 8.693 20m-1.1-10.387L5.831 5.125h-.288c.313.763.638 1.525.963 2.275.362.863.725 1.6 1.087 2.213M2.731 6.175a9.607 9.607 0 0 1-.363-1.05h-.687L2.656 7.5c-.013-.312.012-.75.075-1.325m16.637-1.05h-.65l-6.7 15.6h1.3v.475h-1.512l-.175.4-.45-.2.112-.2H8.356l.2.538-.438.187-.287-.725h-.75v-.475h.537l-6.45-15.6H-.007V4.65h.963l-.113-.287.438-.188.187.475h4.2l-.375-.9.45-.162.4 1.062h1.213v.475H6.343l3.363 8.6c.05.125.1.288.15.475.05-.187.1-.35.15-.475l3.587-8.6h-2.137V4.65h6.912l.25-.587.438.187-.175.4h.462l.025.475z" fill="#e11f26"/></svg>